<svg xmlns="http://www.w3.org/2000/svg" viewBox="0 0 512 512" width="512" height="512">
  <defs>
    <linearGradient id="bg" x1="0" y1="0" x2="1" y2="1">
      <stop offset="0%" stop-color="#7C3AED"/>
      <stop offset="100%" stop-color="#A78BFA"/>
    </linearGradient>
  </defs>
  <!-- 背景圆角矩形 -->
  <rect x="64" y="64" width="384" height="384" rx="96" ry="96" fill="url(#bg)"/>
  <!-- 书页 -->
  <g transform="translate(170,130)">
    <path d="M0 20 L0 230 C0 240 10 245 20 240 L80 215 L80 20 C80 10 70 5 60 10 L20 35 Z" fill="rgba(255,255,255,0.6)" stroke="none"/>
    <path d="M80 20 L80 215 L140 240 C150 245 160 240 160 230 L160 20 C160 10 150 5 140 10 L80 20 Z" fill="rgba(255,255,255,0.85)" stroke="none"/>
    <!-- 文字行 -->
    <rect x="14" y="50" width="55" height="8" rx="4" fill="rgba(255,255,255,0.5)"/>
    <rect x="14" y="72" width="55" height="8" rx="4" fill="rgba(255,255,255,0.5)"/>
    <rect x="14" y="94" width="45" height="8" rx="4" fill="rgba(255,255,255,0.5)"/>
    <rect x="92" y="50" width="52" height="8" rx="4" fill="rgba(255,255,255,0.4)"/>
    <rect x="92" y="72" width="52" height="8" rx="4" fill="rgba(255,255,255,0.4)"/>
    <rect x="92" y="94" width="40" height="8" rx="4" fill="rgba(255,255,255,0.4)"/>
  </g>
  <!-- ✓ 对勾 -->
  <circle cx="380" cy="370" r="52" fill="#10B981" stroke="#fff" stroke-width="6"/>
  <path d="M358 370 L372 386 L404 352" fill="none" stroke="#fff" stroke-width="10" stroke-linecap="round" stroke-linejoin="round"/>
</svg>
